<?xml version="1.0" encoding="UTF-8"?><svg id="Layer_2" xmlns="http://www.w3.org/2000/svg" xmlns:xlink="http://www.w3.org/1999/xlink" viewBox="0 0 471.89 722.43"><defs><style>.cls-1,.cls-2{fill:#fff;}.cls-3{fill:url(#linear-gradient);opacity:0;}.cls-4{fill:url(#radial-gradient);}.cls-5{fill:#b6c9f2;}.cls-5,.cls-6,.cls-2{stroke:#000;stroke-miterlimit:10;}.cls-6{fill:none;}.cls-6,.cls-2{stroke-width:.73px;}.cls-7{fill:url(#radial-gradient-2);}</style><linearGradient id="linear-gradient" x1="247.36" y1="272.38" x2="238.18" y2="168.52" gradientUnits="userSpaceOnUse"><stop offset=".33" stop-color="#f6eff2"/><stop offset=".74" stop-color="#bebebe"/><stop offset=".77" stop-color="#c1c1c1"/><stop offset=".81" stop-color="#cbcbcb"/><stop offset=".84" stop-color="#ddd"/><stop offset=".86" stop-color="#f0f0f0"/></linearGradient><radialGradient id="radial-gradient" cx="358.38" cy="188.44" fx="346.14" fy="188.44" r="64.32" gradientTransform="translate(-4.52 507.84) rotate(-83.26) scale(.99 1.54) skewX(-3.49)" gradientUnits="userSpaceOnUse"><stop offset=".23" stop-color="#855978"/><stop offset=".24" stop-color="#794d6f"/><stop offset=".25" stop-color="#683e63"/><stop offset=".27" stop-color="#5c335b"/><stop offset=".3" stop-color="#552c56"/><stop offset=".38" stop-color="#542b55"/><stop offset=".39" stop-color="#3a1d3b"/><stop offset=".41" stop-color="#241225"/><stop offset=".43" stop-color="#140a14"/><stop offset=".45" stop-color="#080408"/><stop offset=".48" stop-color="#010001"/><stop offset=".58" stop-color="#000"/></radialGradient><radialGradient id="radial-gradient-2" cx="435.1" cy="166.15" fx="435.1" fy="166.15" r="38.94" gradientUnits="userSpaceOnUse"><stop offset=".23" stop-color="#855978"/><stop offset=".25" stop-color="#794d6f"/><stop offset=".27" stop-color="#683e63"/><stop offset=".31" stop-color="#5c335b"/><stop offset=".35" stop-color="#552c56"/><stop offset=".48" stop-color="#542b55"/><stop offset=".49" stop-color="#3a1d3b"/><stop offset=".5" stop-color="#241225"/><stop offset=".5" stop-color="#140a14"/><stop offset=".52" stop-color="#080408"/><stop offset=".53" stop-color="#010001"/><stop offset=".58" stop-color="#000"/></radialGradient></defs><g id="Layer_1-2"><g><g><path class="cls-2" d="M421.04,90.82c-10.29-31.75-32.61-97.43-35.23-89.86-9.92,28.67,5.5,83.46,5.5,83.46l40.86,52.34s11.77-47.9,3.29-44.32c-3.08,1.3-14.42-1.62-14.42-1.62Z"/><line class="cls-2" x1="423.09" y1="98.35" x2="421.04" y2="90.71"/></g><g><g><g><path class="cls-5" d="M257.8,168.51c-3.2-57.15,38.97-90.63,98.61-90.68,60.91-.05,76.88,50.87,80.75,85.05,1.49,13.21-34.88,74.98-34.88,74.98,0,0-13.06,7.42,5.3,46.36,18.36,38.94,59.72,137.42,63.42,210.3,3.7,72.88-18.12,188.44-146.1,217.64-97.09,22.15-165.28,5.71-209.29-39.88-46.73-48.4-42.46-105.43-114.23-153.84,0,0,66.2-8.35,107.65,49.83,85.2,119.6,190.83,51.61,214.95,25.65,53.44-57.51,15.85-169.88,0-224.39-16.72-57.49-63.22-148.19-66.18-201.02Z"/><path class="cls-1" d="M155.15,669.49c-38.57-9.03-82-65.01-82-65.01,.5,.88,6.73,14.41,14.29,27.94,6.5,11.64,14.25,23.61,19.49,29.5,3.79,4.26,10.08,11.55,17.4,18.02,8.35,7.39,17.8,13.89,22.51,16.7,15.54,9.26,41.63,20.86,75.68,23.72,6.15,.52,13.25,.97,20.99,1.05,8.76,.09,18.34-.29,28.2-1.16,30.96-2.75,64.88-9.98,86.44-19.06,14.28-6.02,26.86-12.69,38.92-21.81,22.49-17,39.79-38.96,51.56-63.38,12.73-26.42,19.08-55.35,21.24-82.16,1.34-16.63,1.28-33.73-.05-48.96-1.72-19.86-6.37-40.2-7.92-47.29-3.7-16.96-12.86-47.4-19.72-67.04-8.83-25.3-17.26-46.1-23.99-61.55-.24-.56-4.08-9.32-7.79-17.55-2.26-5.03-4.54-9.84-5.73-12.51-.26-.58-2.02-4.76-3.14-8-1.01-2.95-1.75-5.73-1.85-6.19-1.26-6.07-40.82-27.53-52.68,22.17-11.87,49.7,27.54,108.42,35.51,177.03,7.97,68.62-.05,122.42-29.29,157.33-46.61,55.63-116.83,67.22-198.06,48.22Z"/></g><g><path class="cls-3" d="M220.96,182.27c-8.65,1.79-16.28,5.66-16.28,5.66,3.05,4.49,11.73,12.18,19.62,21.53,0,0,3.66,4.18,3.87,9.3,.53,12.75,6.36,56.22,6.36,56.22,0,0,31.41-38.89,36.52-46.93,1.31-2.07,.14-12.56,2.71-17.38,12.32-23.13-24.65-29.94-24.65-29.94,0,0-12.83-1.64-28.15,1.53Z"/><path class="cls-6" d="M249.11,180.74s37.33,6.06,24.65,29.94"/><path class="cls-2" d="M267.47,177.51s-17.41-12.33-52.65-2.01c-2.94,.86-5.93,2.1-9.12,3.22-15.24,5.38,22.24,27.08,22.13,39.32-.07,8.15,6.54,57.65,6.54,57.65,10.71-12.06,51.56-64.97,51.76-70.7,.26-7.52,8.43-19.06,5.84-24.25-29.22-58.29-78.26-96.79-123.2-93.05l46.05,87.82"/></g></g><g><g><path class="cls-1" d="M391.18,122.03c-5.89,0-10.67-4.79-10.67-10.68s4.79-10.68,10.67-10.68,10.68,4.79,10.68,10.68-4.79,10.68-10.68,10.68Z"/><path d="M391.18,101.1c5.66,0,10.26,4.6,10.26,10.26s-4.6,10.26-10.26,10.26-10.26-4.6-10.26-10.26,4.6-10.26,10.26-10.26m0-.83c-6.12,0-11.09,4.97-11.09,11.09s4.97,11.09,11.09,11.09,11.09-4.97,11.09-11.09-4.97-11.09-11.09-11.09h0Z"/></g><g><g><g><path class="cls-4" d="M327.18,208.18c-6.27,0-14.5-2.77-18.12-15.96-5.55-20.2-6.78-51.93,3.91-55.66,.7-.24,1.44-.37,2.21-.37,10.51,0,26.59,22.69,33.4,42.21,5.85,16.74,3.48,18.54-.81,21.81l-.39,.3c-6.28,4.8-13.83,7.67-20.21,7.67Z"/><path d="M315.19,135.81v.76c10.36,0,26.27,22.55,33.04,41.95,5.75,16.48,3.47,18.22-.69,21.38l-.39,.3c-6.21,4.75-13.68,7.59-19.97,7.59-8.79,0-14.93-5.42-17.75-15.68-5.51-20.06-6.82-51.54,3.67-55.2,.65-.23,1.36-.34,2.09-.34v-.76m0,0c-.81,0-1.59,.13-2.34,.39-11.12,3.88-9.73,35.84-4.16,56.12,3.31,12.05,10.62,16.24,18.48,16.24,7.23,0,14.93-3.53,20.44-7.75,4.66-3.57,7.45-5.04,1.34-22.54-6.47-18.52-22.6-42.47-33.76-42.46h0Z"/></g><g><g><path d="M331.22,198.29c-8.06,0-17.22-9.49-21.79-22.57-5.31-15.21-4.71-36.27,3.55-39.15,.65-.23,1.35-.34,2.08-.34,8.59,0,20.31,15.2,25.05,28.79,2.57,7.35,3.36,14.83,2.23,21.04-1.11,6.13-3.96,10.29-8.02,11.71-.99,.34-2.04,.52-3.11,.52Z"/><path d="M315.07,136.62h0c8.43,0,19.98,15.06,24.68,28.52,5.2,14.9,2.71,29.37-5.54,32.25-.95,.33-1.95,.5-2.98,.5-7.9,0-16.9-9.38-21.41-22.3-5.25-15.05-4.75-35.84,3.31-38.65,.61-.21,1.27-.32,1.95-.32m0-.79c-.77,0-1.51,.12-2.21,.36-8.68,3.03-9.14,24.32-3.79,39.65,4.71,13.49,14.07,22.83,22.16,22.83,1.11,0,2.2-.18,3.24-.54,8.68-3.03,11.38-17.92,6.03-33.25-4.91-14.09-16.79-29.06-25.42-29.05h0Z"/></g><ellipse class="cls-1" cx="322.97" cy="153.5" rx="7.01" ry="16.66" transform="translate(-32.54 114.95) rotate(-19.23)"/></g></g><g><g><path class="cls-7" d="M435.29,170.36c-3.25,0-10.13-11.02-15.58-28.81-5.64-18.4-6.04-31.8-2.89-32.77,.12-.04,.25-.06,.38-.06,3.25,0,10.13,11.02,15.58,28.81,5.64,18.4,6.04,31.8,2.89,32.77-.12,.04-.25,.06-.38,.06Z"/><path d="M417.2,109.11c3.12,0,9.98,11.47,15.21,28.54,2.53,8.26,4.2,16.24,4.69,22.47,.53,6.73-.5,9.49-1.54,9.81-.09,.03-.17,.04-.27,.04-3.12,0-9.98-11.47-15.21-28.54-5.77-18.83-5.72-31.49-3.15-32.28,.09-.03,.17-.04,.27-.04m0-.78c-.17,0-.34,.02-.5,.07-3.82,1.17-2.64,16.06,2.63,33.26,5.05,16.48,12.02,29.09,15.96,29.09,.17,0,.34-.02,.5-.07,3.82-1.17,2.64-16.06-2.63-33.26-5.05-16.48-12.02-29.09-15.96-29.09h0Z"/></g><g><g><path d="M430.85,166.25c-1.39-2.44-8.44-15.11-11.72-26.81-3.66-13.07-5.35-29.82-2.09-30.73,.05-.02,.11-.02,.18-.02,3.36,0,13.2,20.23,14.6,28.52,2.6,15.4,.6,24.67-.97,29.04Z"/><path d="M417.22,108.91c3.2,0,13.02,20.33,14.37,28.33,2.5,14.81,.73,23.93-.79,28.46-1.83-3.25-8.34-15.22-11.45-26.32-1.81-6.47-3.17-13.94-3.63-19.98-.55-7.28,.35-10.19,1.38-10.48,.04,0,.07-.01,.11-.01m0-.45c-.08,0-.16,.01-.24,.03-3.46,.97-1.75,17.88,1.93,31.01,3.68,13.13,11.98,27.28,11.98,27.28,1.98-5.23,3.62-14.93,1.14-29.62-1.33-7.89-11.15-28.71-14.82-28.71h0Z"/></g><path class="cls-1" d="M424.58,122.94c1.45,7.75-3.15,17.32-4.9,15.66-1.2-1.14-2.23-6.31-3.67-14.06-1.45-7.75-1.19-14.42,1.17-14.86s5.96,5.51,7.4,13.26Z"/></g></g></g><g><path class="cls-1" d="M384.02,250.37c-18.79,0-33.33-8.47-38.91-22.65-3.94-10.04-2.52-21.17,4.01-31.34,6.85-10.69,18.57-19.51,33.88-25.53,10.24-4.02,20.24-6.06,29.71-6.06,18.5,0,32.7,8.04,37.99,21.5,8.38,21.33-8.25,46.44-38.68,58.4-9.62,3.78-19.04,5.69-28,5.69Z"/><path d="M412.71,164.31v.92h0c18.3,0,32.34,7.93,37.56,21.21,8.29,21.09-8.23,45.94-38.42,57.8-9.56,3.76-18.93,5.66-27.83,5.66-18.59,0-32.98-8.36-38.48-22.36-3.89-9.89-2.48-20.88,3.97-30.93,6.8-10.6,18.44-19.37,33.67-25.35,10.19-4,20.13-6.03,29.54-6.03v-.92m0,0c-9.15,0-19.31,1.95-29.87,6.1-31.97,12.56-46.26,36.84-38.15,57.47,5.57,14.19,20.29,22.95,39.33,22.95,8.65,0,18.18-1.8,28.16-5.73,31.97-12.56,47.04-38.37,38.94-58.99-5.43-13.81-19.87-21.8-38.41-21.79h0Z"/></g></g></g></g></g></svg>