<?xml version="1.0" encoding="UTF-8"?><svg id="Layer_2" xmlns="http://www.w3.org/2000/svg" xmlns:xlink="http://www.w3.org/1999/xlink" viewBox="0 0 1164.89 1256.19"><defs><style>.cls-1{fill:url(#linear-gradient-2);}.cls-2,.cls-3,.cls-4,.cls-5,.cls-6,.cls-7,.cls-8,.cls-9,.cls-10,.cls-11,.cls-12,.cls-13,.cls-14,.cls-15,.cls-16,.cls-17,.cls-18,.cls-19,.cls-20,.cls-21,.cls-22{stroke-miterlimit:10;}.cls-2,.cls-3,.cls-5,.cls-6,.cls-7,.cls-8,.cls-9,.cls-10,.cls-11,.cls-12,.cls-13,.cls-14,.cls-15,.cls-16,.cls-18,.cls-19,.cls-21,.cls-22{stroke:#000;}.cls-2,.cls-3,.cls-5,.cls-8,.cls-12,.cls-23,.cls-18,.cls-22{fill:#eae9e4;}.cls-2,.cls-19{stroke-width:.74px;}.cls-3,.cls-7,.cls-15{stroke-width:1.06px;}.cls-24{fill:#f4f4f4;}.cls-4{fill:#f7fcfc;}.cls-4,.cls-25,.cls-17,.cls-20{stroke:#231f20;}.cls-4,.cls-17,.cls-20{stroke-width:.98px;}.cls-26{fill:#025b83;}.cls-5,.cls-10{stroke-width:.75px;}.cls-6{fill:#8c8c8c;filter:url(#drop-shadow-1);}.cls-7{fill:url(#linear-gradient-6);}.cls-8{stroke-width:1.05px;}.cls-9{stroke-width:1.07px;}.cls-9,.cls-13{fill:#d1d1cf;}.cls-27{fill:#c9c9c7;}.cls-10,.cls-25,.cls-28{fill:none;}.cls-29{fill:#282828;}.cls-30{fill:#780912;}.cls-31{fill:#828282;}.cls-11{fill:#c6c6c6;}.cls-12{stroke-width:1.05px;}.cls-14{fill:#d3d3d1;}.cls-25{stroke-dasharray:0 0 2 2;stroke-width:.3px;}.cls-15{fill:url(#linear-gradient-7);}.cls-32{fill:#0064a8;}.cls-33{fill:url(#linear-gradient-5);}.cls-34{fill:#bcbcbc;}.cls-35{fill:#a75b59;}.cls-36,.cls-20{fill:#c1d2d6;}.cls-16{fill:#fff;stroke-width:.21px;}.cls-17{fill:#7b979b;}.cls-37{fill:url(#linear-gradient-3);}.cls-38{fill:url(#linear-gradient);}.cls-39{fill:#014780;}.cls-19{fill:url(#USGS_19_Land_Inundation);}.cls-40{fill:#d8d8d6;}.cls-41{fill:url(#linear-gradient-4);}.cls-21{fill:url(#radial-gradient);stroke-width:.23px;}.cls-22{stroke-width:.25px;}.cls-42{fill:#c1813c;}</style><filter id="drop-shadow-1" filterUnits="userSpaceOnUse"><feOffset dx="0" dy="1"/><feGaussianBlur result="blur" stdDeviation="1"/><feFlood flood-color="#000" flood-opacity=".75"/><feComposite in2="blur" operator="in"/><feComposite in="SourceGraphic"/></filter><radialGradient id="radial-gradient" cx="582.04" cy="755.83" fx="582.04" fy="755.83" r="23.68" gradientTransform="translate(1241.63 158.44) rotate(88.68) scale(1 .89)" gradientUnits="userSpaceOnUse"><stop offset=".6" stop-color="#fff"/><stop offset=".69" stop-color="#dfdfdf"/><stop offset=".75" stop-color="#cdcdcd"/><stop offset=".8" stop-color="silver"/><stop offset=".89" stop-color="#a0a0a0"/><stop offset=".91" stop-color="#999"/></radialGradient><linearGradient id="linear-gradient" x1="583.13" y1="733.96" x2="583.13" y2="735.12" gradientUnits="userSpaceOnUse"><stop offset="0" stop-color="#014780"/><stop offset="1" stop-color="#000"/></linearGradient><linearGradient id="linear-gradient-2" x1="582.47" y1="509.46" x2="582.47" y2="572.96" gradientUnits="userSpaceOnUse"><stop offset=".04" stop-color="#42495e"/><stop offset=".45" stop-color="#242e32"/></linearGradient><linearGradient id="linear-gradient-3" x1="558.62" y1="691.55" x2="606.32" y2="691.55" xlink:href="#linear-gradient-2"/><linearGradient id="linear-gradient-4" x1="524.32" y1="1085.77" x2="524.32" y2="712.15" gradientUnits="userSpaceOnUse"><stop offset=".03" stop-color="gray"/><stop offset=".07" stop-color="#6e6e6e"/><stop offset=".13" stop-color="#585858"/><stop offset=".19" stop-color="#474747"/><stop offset=".28" stop-color="#3b3b3b"/><stop offset=".4" stop-color="#343434"/><stop offset=".74" stop-color="#333"/><stop offset=".79" stop-color="#5f5f5f"/><stop offset=".92" stop-color="#cfcfcd"/><stop offset=".92" stop-color="#d3d3d1"/></linearGradient><linearGradient id="linear-gradient-5" x1="3490.41" y1="1085.77" x2="3490.41" y2="712.15" gradientTransform="translate(4130.99) rotate(-180) scale(1 -1)" xlink:href="#linear-gradient-4"/><linearGradient id="linear-gradient-6" x1="447.66" y1="1116.13" x2="502.43" y2="1116.13" gradientUnits="userSpaceOnUse"><stop offset=".06" stop-color="#4d4d4d"/><stop offset=".08" stop-color="#5b5b5a"/><stop offset=".14" stop-color="#81807f"/><stop offset=".2" stop-color="#a1a19e"/><stop offset=".27" stop-color="#bcbbb7"/><stop offset=".35" stop-color="#d0cfcb"/><stop offset=".44" stop-color="#deded9"/><stop offset=".54" stop-color="#e7e6e1"/><stop offset=".71" stop-color="#eae9e4"/></linearGradient><pattern id="USGS_19_Land_Inundation" x="0" y="0" width="72" height="72" patternTransform="translate(-1513.25 -1775.92)" patternUnits="userSpaceOnUse" viewBox="0 0 72 72"><g><rect class="cls-28" width="72" height="72"/><g><line class="cls-25" x1="70.26" y1="71" x2="143.7" y2="71"/><line class="cls-25" x1="70.26" y1="67" x2="143.7" y2="67"/><line class="cls-25" x1="70.26" y1="63" x2="143.7" y2="63"/><line class="cls-25" x1="70.26" y1="59" x2="143.7" y2="59"/><line class="cls-25" x1="70.26" y1="55" x2="143.7" y2="55"/><line class="cls-25" x1="70.26" y1="51" x2="143.7" y2="51"/><line class="cls-25" x1="70.26" y1="47" x2="143.7" y2="47"/><line class="cls-25" x1="70.26" y1="43" x2="143.7" y2="43"/><line class="cls-25" x1="70.26" y1="39" x2="143.7" y2="39"/><line class="cls-25" x1="70.26" y1="35" x2="143.7" y2="35"/><line class="cls-25" x1="70.26" y1="31" x2="143.7" y2="31"/><line class="cls-25" x1="70.26" y1="27" x2="143.7" y2="27"/><line class="cls-25" x1="70.26" y1="23" x2="143.7" y2="23"/><line class="cls-25" x1="70.26" y1="19" x2="143.7" y2="19"/><line class="cls-25" x1="70.26" y1="15" x2="143.7" y2="15"/><line class="cls-25" x1="70.26" y1="11" x2="143.7" y2="11"/><line class="cls-25" x1="70.26" y1="7" x2="143.7" y2="7"/><line class="cls-25" x1="70.26" y1="3" x2="143.7" y2="3"/></g><g><line class="cls-25" x1="-1.74" y1="71" x2="71.7" y2="71"/><line class="cls-25" x1="-1.74" y1="67" x2="71.7" y2="67"/><line class="cls-25" x1="-1.74" y1="63" x2="71.7" y2="63"/><line class="cls-25" x1="-1.74" y1="59" x2="71.7" y2="59"/><line class="cls-25" x1="-1.74" y1="55" x2="71.7" y2="55"/><line class="cls-25" x1="-1.74" y1="51" x2="71.7" y2="51"/><line class="cls-25" x1="-1.74" y1="47" x2="71.7" y2="47"/><line class="cls-25" x1="-1.74" y1="43" x2="71.7" y2="43"/><line class="cls-25" x1="-1.74" y1="39" x2="71.7" y2="39"/><line class="cls-25" x1="-1.74" y1="35" x2="71.7" y2="35"/><line class="cls-25" x1="-1.74" y1="31" x2="71.7" y2="31"/><line class="cls-25" x1="-1.74" y1="27" x2="71.7" y2="27"/><line class="cls-25" x1="-1.74" y1="23" x2="71.7" y2="23"/><line class="cls-25" x1="-1.74" y1="19" x2="71.7" y2="19"/><line class="cls-25" x1="-1.74" y1="15" x2="71.7" y2="15"/><line class="cls-25" x1="-1.74" y1="11" x2="71.7" y2="11"/><line class="cls-25" x1="-1.74" y1="7" x2="71.7" y2="7"/><line class="cls-25" x1="-1.74" y1="3" x2="71.7" y2="3"/><line class="cls-25" x1=".3" y1="69" x2="73.74" y2="69"/><line class="cls-25" x1=".3" y1="65" x2="73.74" y2="65"/><line class="cls-25" x1=".3" y1="61" x2="73.74" y2="61"/><line class="cls-25" x1=".3" y1="57" x2="73.74" y2="57"/><line class="cls-25" x1=".3" y1="53" x2="73.74" y2="53"/><line class="cls-25" x1=".3" y1="49" x2="73.74" y2="49"/><line class="cls-25" x1=".3" y1="45" x2="73.74" y2="45"/><line class="cls-25" x1=".3" y1="41" x2="73.74" y2="41"/><line class="cls-25" x1=".3" y1="37" x2="73.74" y2="37"/><line class="cls-25" x1=".3" y1="33" x2="73.74" y2="33"/><line class="cls-25" x1=".3" y1="29" x2="73.74" y2="29"/><line class="cls-25" x1=".3" y1="25" x2="73.74" y2="25"/><line class="cls-25" x1=".3" y1="21" x2="73.74" y2="21"/><line class="cls-25" x1=".3" y1="17" x2="73.74" y2="17"/><line class="cls-25" x1=".3" y1="13" x2="73.74" y2="13"/><line class="cls-25" x1=".3" y1="9" x2="73.74" y2="9"/><line class="cls-25" x1=".3" y1="5" x2="73.74" y2="5"/><line class="cls-25" x1=".3" y1="1" x2="73.74" y2="1"/></g><g><line class="cls-25" x1="-71.7" y1="69" x2="1.74" y2="69"/><line class="cls-25" x1="-71.7" y1="65" x2="1.74" y2="65"/><line class="cls-25" x1="-71.7" y1="61" x2="1.74" y2="61"/><line class="cls-25" x1="-71.7" y1="57" x2="1.74" y2="57"/><line class="cls-25" x1="-71.7" y1="53" x2="1.74" y2="53"/><line class="cls-25" x1="-71.7" y1="49" x2="1.74" y2="49"/><line class="cls-25" x1="-71.7" y1="45" x2="1.74" y2="45"/><line class="cls-25" x1="-71.7" y1="41" x2="1.74" y2="41"/><line class="cls-25" x1="-71.7" y1="37" x2="1.74" y2="37"/><line class="cls-25" x1="-71.7" y1="33" x2="1.74" y2="33"/><line class="cls-25" x1="-71.7" y1="29" x2="1.74" y2="29"/><line class="cls-25" x1="-71.7" y1="25" x2="1.74" y2="25"/><line class="cls-25" x1="-71.7" y1="21" x2="1.74" y2="21"/><line class="cls-25" x1="-71.7" y1="17" x2="1.74" y2="17"/><line class="cls-25" x1="-71.7" y1="13" x2="1.74" y2="13"/><line class="cls-25" x1="-71.7" y1="9" x2="1.74" y2="9"/><line class="cls-25" x1="-71.7" y1="5" x2="1.74" y2="5"/><line class="cls-25" x1="-71.7" y1="1" x2="1.74" y2="1"/></g></g></pattern><linearGradient id="linear-gradient-7" x1="2884.13" y1="1116.13" x2="2938.9" y2="1116.13" gradientTransform="translate(3601.36) rotate(-180) scale(1 -1)" xlink:href="#linear-gradient-6"/></defs><g id="Layer_1-2"><path class="cls-14" d="M516.96,1086.52v-358.02l2-20.35,30-559.06c3.12-9.13,15.57-18.05,15.57-18.05h35.83s11.35,7.47,15.57,18.05l30,559.06,2,20.35v358.02l-16.61,29.61h-97.74l-16.61-29.61Z"/><rect class="cls-18" x="564.46" y=".5" width="35.83" height="128.34"/><path class="cls-11" d="M600.3,.5s15.57,132.55,15.57,143.55c0,0-8.32-12.21-15.57-15.2V.5Z"/><path class="cls-11" d="M564.46,.5s-15.57,132.55-15.57,143.55c0,0,8.32-12.21,15.57-15.2V.5Z"/><polygon class="cls-36" points="554.08 429.33 610.68 429.33 607.68 412.23 557.08 412.23 554.08 429.33"/><polygon class="cls-35" points="535.8 455.46 546.8 264.89 553.8 263.89 542.8 455.46 535.8 455.46"/><polygon class="cls-35" points="520.88 680.45 523.09 639.33 529.84 640.16 527.81 681.44 520.88 680.45"/><polygon class="cls-35" points="629.71 455.46 618.71 264.89 611.71 263.89 622.71 455.46 629.71 455.46"/><polygon class="cls-35" points="615.72 194.94 613.4 145.6 605.37 136.71 607.68 192.94 615.72 194.94"/><polygon class="cls-35" points="548.63 194.94 550.94 145.6 558.98 136.71 556.67 192.94 548.63 194.94"/><rect class="cls-42" x="572.38" y="133.63" width="20" height="58.48"/><path class="cls-6" d="M615.86,144.05c-6.08-11-15.57-15.2-15.57-15.2h-35.83s-10.21,4.96-15.57,15.2v8.05c4.01-10.26,15.57-18.05,15.57-18.05h35.83s11.57,7.76,15.57,18.05v-8.05Z"/><polygon class="cls-23" points="557.08 412.23 607.68 412.23 592.38 192.11 572.38 192.11 557.08 412.23"/><rect class="cls-42" x="572.38" y="262.89" width="20" height="135.65"/><path class="cls-40" d="M533.11,638.36s-.96,41.42-1.96,55.67c-.91,12.9,0,393.15,0,393.15h102.58s.97-379.68,0-393.15c-1.03-14.26-2.65-55.67-2.65-55.67h-97.97Z"/><rect class="cls-22" x="572.38" y="192.11" width="20" height="70.78"/><path class="cls-23" d="M551.24,704.64s-6.05,31.21-6.79,41.76c-.67,9.56,0,340.77,0,340.77h75.97s.72-330.8,0-340.77c-.76-10.56-7-41.76-7-41.76h-62.18Z"/><path class="cls-31" d="M560.06,1104.76v-347.39c0-12.98,10.02-23.5,22.38-23.5h0c12.36,0,22.38,10.52,22.38,23.5v347.39h-44.76Z"/><g><circle class="cls-21" cx="582.32" cy="755.64" r="21.48"/><g><circle class="cls-39" cx="582.32" cy="755.64" r="7.27"/><g><path class="cls-39" d="M590.79,755.64c0,1.4-.34,2.72-.94,3.88l4.73,2.73c1.06-1.97,1.66-4.22,1.66-6.61s-.6-4.63-1.66-6.6l-4.73,2.73c.6,1.16,.93,2.48,.93,3.87Z"/><path class="cls-39" d="M582.73,747.18c2.81,.14,5.27,1.65,6.71,3.88l4.73-2.73c-2.39-3.86-6.6-6.46-11.43-6.6v5.46Z"/><path class="cls-39" d="M573.85,755.64c0-1.4,.34-2.72,.94-3.88l-4.73-2.73c-1.06,1.97-1.67,4.22-1.67,6.61s.6,4.63,1.66,6.6l4.73-2.73c-.6-1.16-.93-2.47-.93-3.87Z"/><path class="cls-39" d="M575.2,751.05c1.44-2.23,3.89-3.73,6.71-3.87v-5.46c-4.83,.14-9.05,2.74-11.43,6.59l4.73,2.73Z"/><path class="cls-39" d="M589.44,760.23c-1.44,2.23-3.89,3.73-6.71,3.87v5.46c4.83-.14,9.05-2.74,11.44-6.6l-4.73-2.73Z"/><path class="cls-39" d="M581.9,764.1c-2.82-.14-5.27-1.65-6.71-3.88l-4.73,2.73c2.38,3.86,6.6,6.46,11.43,6.61v-5.46Z"/></g></g><rect class="cls-16" x="555.91" y="749.22" width="4.92" height="12.86"/><rect class="cls-16" x="603.8" y="749.22" width="4.92" height="12.86"/><rect class="cls-32" x="579.78" y="736.15" width="6.71" height="1.42"/><rect class="cls-39" x="579.78" y="733.35" width="6.71" height="2.8"/><ellipse class="cls-38" cx="583.13" cy="734.75" rx="1.26" ry=".7"/></g><g><g><polygon class="cls-20" points="555.45 429.33 609.49 429.33 631.45 638.36 533.48 638.36 555.45 429.33"/><polygon class="cls-1" points="562.5 432.33 602.44 432.33 607.06 437.96 613.35 630.73 609.62 636.36 555.31 636.36 551.59 630.73 557.88 437.96 562.5 432.33"/><polygon class="cls-4" points="537.69 635.36 547.51 635.36 553.91 468.84 537.69 635.36"/><polygon class="cls-4" points="627.18 635.36 617.36 635.36 610.95 468.84 627.18 635.36"/></g><g><g><rect class="cls-20" x="551.38" y="638.36" width="62.18" height="40.66"/><g><rect class="cls-17" x="551.38" y="679.01" width="62.18" height="25.07"/><rect class="cls-37" x="558.62" y="683.65" width="47.7" height="15.79"/></g></g><g><path class="cls-20" d="M533.32,638.36h18.06v65.73c-1.8-.03-18.06-65.73-18.06-65.73Z"/><polygon class="cls-4" points="537.52 640.96 547.34 640.96 548.41 676.95 537.52 640.96"/></g><g><path class="cls-20" d="M631.62,638.36h-18.06s0,65.73,0,65.73c1.8-.03,18.06-65.73,18.06-65.73Z"/><polygon class="cls-4" points="627.41 640.96 617.59 640.96 616.52 676.95 627.41 640.96"/></g></g></g><g><polygon class="cls-41" points="517.47 736.15 530.83 736.15 531.16 1087.17 517.47 1086.46 517.47 736.15"/><g><polygon class="cls-27" points="515.9 759.63 515.9 722.92 516.87 719.89 520.88 717.89 522.67 720.89 522.67 751.05 515.9 759.63"/><polygon class="cls-24" points="520.88 717.89 522.67 720.89 524.64 720.89 522.77 717.89 520.88 717.89"/><rect class="cls-34" x="522.67" y="720.89" width="1.96" height="30.15"/><polygon class="cls-29" points="517.9 759.63 524.64 751.05 522.67 751.05 515.9 759.63 517.9 759.63"/></g></g><g><polygon class="cls-33" points="647.42 736.15 634.06 736.15 633.73 1087.17 647.42 1086.46 647.42 736.15"/><g><polygon class="cls-27" points="648.99 759.63 648.99 722.92 648.02 719.89 644.01 717.89 642.22 720.89 642.22 751.05 648.99 759.63"/><polygon class="cls-24" points="644.01 717.89 642.22 720.89 640.26 720.89 642.12 717.89 644.01 717.89"/><rect class="cls-34" x="640.26" y="720.89" width="1.96" height="30.15"/><polygon class="cls-29" points="646.99 759.63 640.26 751.05 642.22 751.05 648.99 759.63 646.99 759.63"/></g></g><g><rect class="cls-8" x="417.46" y="745.84" width="99.43" height="230.76"/><g><path class="cls-13" d="M49.62,388.42c4.95-9.5,2.63-21.91,2.63-21.91h9.6s-1.47,18.58-6.29,21.91h-5.95Z"/><rect class="cls-13" x="24" y="730.09" width="49.19" height="299.18"/><polygon class="cls-13" points="38.76 730.09 60.23 730.09 60.23 552.99 54.74 549.42 44.25 549.42 38.76 552.99 38.76 730.09"/><rect class="cls-13" x="44.25" y="396.77" width="10.5" height="152.65"/><polygon class="cls-13" points="43.25 388.42 55.74 388.42 57.74 396.77 41.25 396.77 43.25 388.42"/><rect class="cls-13" x="46.96" y="338.04" width="4.47" height="50.39"/><path class="cls-13" d="M49.2,388.42c-4.95-9.5-2.63-21.91-2.63-21.91h-9.6s1.47,18.58,6.29,21.91h5.95Z"/></g><polygon class="cls-18" points="361.8 794.14 53.23 794.14 53.23 1019.53 404.73 1062.46 404.73 1048.82 361.8 1048.82 361.8 794.14"/><polygon class="cls-30" points="72.72 928.99 294.64 951.11 294.64 939.64 183.5 927.99 183.5 794.59 72.3 794.59 72.72 928.99"/><g><path class="cls-18" d="M29.66,391.66c4.95-9.5,2.63-21.91,2.63-21.91h9.6s-1.47,18.58-6.29,21.91h-5.95Z"/><rect class="cls-18" x="4.03" y="733.32" width="49.19" height="299.18"/><polygon class="cls-18" points="18.79 733.32 40.26 733.32 40.26 556.23 34.77 552.65 24.28 552.65 18.79 556.23 18.79 733.32"/><rect class="cls-18" x="24.28" y="400" width="10.5" height="152.65"/><polygon class="cls-18" points="23.28 391.66 35.77 391.66 37.77 400 21.28 400 23.28 391.66"/><rect class="cls-18" x="26.99" y="341.27" width="4.47" height="50.39"/><path class="cls-18" d="M29.23,391.66c-4.95-9.5-2.63-21.91-2.63-21.91h-9.6s1.47,18.58,6.29,21.91h5.95Z"/></g><polygon class="cls-30" points="294.64 970.9 278.81 969.32 278.81 1046.62 294.64 1048.53 294.64 970.9"/><polygon class="cls-30" points="254.99 966.13 239.16 964.55 239.16 1041.85 254.99 1043.76 254.99 966.13"/><polygon class="cls-30" points="215.34 961.36 199.51 959.78 199.51 1037.08 215.34 1038.99 215.34 961.36"/><polygon class="cls-30" points="175.69 956.59 159.85 955.01 159.85 1032.31 175.69 1034.22 175.69 956.59"/><polygon class="cls-30" points="136.03 951.82 120.2 950.24 120.2 1027.54 136.03 1029.45 136.03 951.82"/><rect class="cls-9" x=".53" y="733.32" width="56.19" height="26.9"/><rect class="cls-13" x="15.7" y="1032.5" width="25.87" height="12.05"/><rect class="cls-13" x="11.25" y="1044.55" width="34.76" height="7.97"/><path class="cls-26" d="M19.25,575.28c1.05,2.19,20.07,9.3,20.53,11v14.52c-.35-1.62-20.15-8.76-20.53-11v-14.52Z"/><path class="cls-26" d="M39.78,556.48v12.35c-.35-1.62-20.15-8.76-20.53-11v-1.35h20.53Z"/><path class="cls-26" d="M19.26,609.27c1.05,2.19,20.07,9.3,20.53,11v14.52c-.35-1.62-20.15-8.76-20.53-11v-14.52Z"/><path class="cls-26" d="M19.27,643.26c1.05,2.19,20.07,9.3,20.53,11v14.52c-.35-1.62-20.15-8.76-20.53-11v-14.52Z"/><path class="cls-26" d="M19.27,677.25c1.05,2.19,20.07,9.3,20.53,11v14.52c-.35-1.62-20.15-8.76-20.53-11v-14.52Z"/><path class="cls-26" d="M32.44,732.78c-5.8-2.61-12.93-5.69-13.16-7.03v-14.52c1.05,2.19,20.07,9.3,20.53,11v10.55h-7.37Z"/><g><line class="cls-2" x1="498.44" y1="756.29" x2="498.44" y2="806.66"/><line class="cls-2" x1="502.01" y1="756.29" x2="502.01" y2="806.66"/><line class="cls-2" x1="505.59" y1="756.29" x2="505.59" y2="806.66"/><line class="cls-2" x1="509.17" y1="756.29" x2="509.17" y2="806.66"/><line class="cls-2" x1="512.75" y1="756.29" x2="512.75" y2="806.66"/><line class="cls-2" x1="516.32" y1="756.29" x2="516.32" y2="806.66"/></g><g><line class="cls-2" x1="477.09" y1="756.29" x2="477.09" y2="806.66"/><line class="cls-2" x1="480.67" y1="756.29" x2="480.67" y2="806.66"/><line class="cls-2" x1="484.25" y1="756.29" x2="484.25" y2="806.66"/><line class="cls-2" x1="487.82" y1="756.29" x2="487.82" y2="806.66"/><line class="cls-2" x1="491.4" y1="756.29" x2="491.4" y2="806.66"/><line class="cls-2" x1="494.98" y1="756.29" x2="494.98" y2="806.66"/></g><g><line class="cls-2" x1="455.75" y1="756.29" x2="455.75" y2="806.66"/><line class="cls-2" x1="459.32" y1="756.29" x2="459.32" y2="806.66"/><line class="cls-2" x1="462.9" y1="756.29" x2="462.9" y2="806.66"/><line class="cls-2" x1="466.48" y1="756.29" x2="466.48" y2="806.66"/><line class="cls-2" x1="470.06" y1="756.29" x2="470.06" y2="806.66"/><line class="cls-2" x1="473.63" y1="756.29" x2="473.63" y2="806.66"/></g><g><line class="cls-2" x1="434.4" y1="756.29" x2="434.4" y2="806.66"/><line class="cls-2" x1="437.98" y1="756.29" x2="437.98" y2="806.66"/><line class="cls-2" x1="441.56" y1="756.29" x2="441.56" y2="806.66"/><line class="cls-2" x1="445.13" y1="756.29" x2="445.13" y2="806.66"/><line class="cls-2" x1="448.71" y1="756.29" x2="448.71" y2="806.66"/><line class="cls-2" x1="452.29" y1="756.29" x2="452.29" y2="806.66"/></g><polygon class="cls-5" points="53.23 830.81 72.3 835.81 72.3 945.24 53.23 950.24 53.23 830.81"/><line class="cls-10" x1="404.73" y1="1053.97" x2="53.23" y2="1011.03"/><polygon class="cls-12" points="417.43 794.14 346.8 794.14 346.8 1048.82 516.9 1048.82 516.9 976.6 417.43 976.6 417.43 794.14"/><polygon class="cls-7" points="447.66 976.6 502.43 976.6 501.43 1255.66 448.66 1255.66 447.66 976.6"/><rect class="cls-18" x="444.53" y="1173.37" width="61.03" height="31.6"/><g><line class="cls-3" x1="456.22" y1="1204.97" x2="456.22" y2="1255.66"/><line class="cls-3" x1="463.67" y1="1204.97" x2="463.67" y2="1255.66"/><line class="cls-3" x1="471.13" y1="1204.97" x2="471.13" y2="1255.66"/><line class="cls-3" x1="478.58" y1="1204.97" x2="478.58" y2="1255.66"/><line class="cls-3" x1="486.03" y1="1204.97" x2="486.03" y2="1255.66"/><line class="cls-3" x1="493.49" y1="1204.97" x2="493.49" y2="1255.66"/></g><polygon class="cls-19" points="417.43 964.55 346.8 964.55 346.8 916.97 361.8 916.97 399.28 849 417.43 849 417.43 964.55"/><line class="cls-5" x1="72.3" y1="820.97" x2="346.8" y2="820.97"/><line class="cls-5" x1="266.24" y1="1037.05" x2="266.24" y2="820.97"/><line class="cls-5" x1="112.41" y1="1018.26" x2="112.41" y2="820.97"/></g><g><rect class="cls-8" x="647.99" y="745.84" width="99.43" height="230.76"/><g><path class="cls-13" d="M1115.27,388.42c-4.95-9.5-2.63-21.91-2.63-21.91h-9.6s1.47,18.58,6.29,21.91h5.95Z"/><rect class="cls-13" x="1091.7" y="730.09" width="49.19" height="299.18"/><polygon class="cls-13" points="1126.13 730.09 1104.66 730.09 1104.66 552.99 1110.15 549.42 1120.65 549.42 1126.13 552.99 1126.13 730.09"/><rect class="cls-13" x="1110.15" y="396.77" width="10.5" height="152.65"/><polygon class="cls-13" points="1121.65 388.42 1109.15 388.42 1107.15 396.77 1123.65 396.77 1121.65 388.42"/><rect class="cls-13" x="1113.46" y="338.04" width="4.47" height="50.39"/><path class="cls-13" d="M1115.7,388.42c4.95-9.5,2.63-21.91,2.63-21.91h9.6s-1.47,18.58-6.29,21.91h-5.95Z"/></g><polygon class="cls-18" points="803.09 794.14 1111.66 794.14 1111.66 1019.53 760.16 1062.46 760.16 1048.82 803.09 1048.82 803.09 794.14"/><polygon class="cls-30" points="1092.18 928.99 870.25 951.11 870.25 939.64 981.39 927.99 981.39 794.59 1092.59 794.59 1092.18 928.99"/><g><path class="cls-18" d="M1135.24,391.66c-4.95-9.5-2.63-21.91-2.63-21.91h-9.6s1.47,18.58,6.29,21.91h5.95Z"/><rect class="cls-18" x="1111.66" y="733.32" width="49.19" height="299.18"/><polygon class="cls-18" points="1146.1 733.32 1124.63 733.32 1124.63 556.23 1130.12 552.65 1140.61 552.65 1146.1 556.23 1146.1 733.32"/><rect class="cls-18" x="1130.12" y="400" width="10.5" height="152.65"/><polygon class="cls-18" points="1141.61 391.66 1129.12 391.66 1127.12 400 1143.61 400 1141.61 391.66"/><rect class="cls-18" x="1133.43" y="341.27" width="4.47" height="50.39"/><path class="cls-18" d="M1135.66,391.66c4.95-9.5,2.63-21.91,2.63-21.91h9.6s-1.47,18.58-6.29,21.91h-5.95Z"/></g><polygon class="cls-30" points="870.25 970.9 886.08 969.32 886.08 1046.62 870.25 1048.53 870.25 970.9"/><polygon class="cls-30" points="909.9 966.13 925.73 964.55 925.73 1041.85 909.9 1043.76 909.9 966.13"/><polygon class="cls-30" points="949.55 961.36 965.39 959.78 965.39 1037.08 949.55 1038.99 949.55 961.36"/><polygon class="cls-30" points="989.21 956.59 1005.04 955.01 1005.04 1032.31 989.21 1034.22 989.21 956.59"/><polygon class="cls-30" points="1028.86 951.82 1044.69 950.24 1044.69 1027.54 1028.86 1029.45 1028.86 951.82"/><rect class="cls-9" x="1108.16" y="733.32" width="56.19" height="26.9"/><rect class="cls-13" x="1123.33" y="1032.5" width="25.87" height="12.05"/><rect class="cls-13" x="1118.88" y="1044.55" width="34.76" height="7.97"/><path class="cls-26" d="M1145.64,575.28c-1.05,2.19-20.07,9.3-20.53,11v14.52c.35-1.62,20.15-8.76,20.53-11v-14.52Z"/><path class="cls-26" d="M1125.11,556.48v12.35c.35-1.62,20.15-8.76,20.53-11v-1.35s-20.53,0-20.53,0Z"/><path class="cls-26" d="M1145.63,609.27c-1.05,2.19-20.07,9.3-20.53,11v14.52c.35-1.62,20.15-8.76,20.53-11v-14.52Z"/><path class="cls-26" d="M1145.63,643.26c-1.05,2.19-20.07,9.3-20.53,11v14.52c.35-1.62,20.15-8.76,20.53-11v-14.52Z"/><path class="cls-26" d="M1145.62,677.25c-1.05,2.19-20.07,9.3-20.53,11v14.52c.35-1.62,20.15-8.76,20.53-11v-14.52Z"/><path class="cls-26" d="M1132.45,732.78c5.8-2.61,12.93-5.69,13.16-7.03v-14.52c-1.05,2.19-20.07,9.3-20.53,11v10.55s7.37,0,7.37,0Z"/><g><line class="cls-2" x1="666.46" y1="756.29" x2="666.46" y2="806.66"/><line class="cls-2" x1="662.88" y1="756.29" x2="662.88" y2="806.66"/><line class="cls-2" x1="659.3" y1="756.29" x2="659.3" y2="806.66"/><line class="cls-2" x1="655.72" y1="756.29" x2="655.72" y2="806.66"/><line class="cls-2" x1="652.15" y1="756.29" x2="652.15" y2="806.66"/><line class="cls-2" x1="648.57" y1="756.29" x2="648.57" y2="806.66"/></g><g><line class="cls-2" x1="687.8" y1="756.29" x2="687.8" y2="806.66"/><line class="cls-2" x1="684.22" y1="756.29" x2="684.22" y2="806.66"/><line class="cls-2" x1="680.65" y1="756.29" x2="680.65" y2="806.66"/><line class="cls-2" x1="677.07" y1="756.29" x2="677.07" y2="806.66"/><line class="cls-2" x1="673.49" y1="756.29" x2="673.49" y2="806.66"/><line class="cls-2" x1="669.91" y1="756.29" x2="669.91" y2="806.66"/></g><g><line class="cls-2" x1="709.15" y1="756.29" x2="709.15" y2="806.66"/><line class="cls-2" x1="705.57" y1="756.29" x2="705.57" y2="806.66"/><line class="cls-2" x1="701.99" y1="756.29" x2="701.99" y2="806.66"/><line class="cls-2" x1="698.41" y1="756.29" x2="698.41" y2="806.66"/><line class="cls-2" x1="694.84" y1="756.29" x2="694.84" y2="806.66"/><line class="cls-2" x1="691.26" y1="756.29" x2="691.26" y2="806.66"/></g><g><line class="cls-2" x1="730.49" y1="756.29" x2="730.49" y2="806.66"/><line class="cls-2" x1="726.91" y1="756.29" x2="726.91" y2="806.66"/><line class="cls-2" x1="723.34" y1="756.29" x2="723.34" y2="806.66"/><line class="cls-2" x1="719.76" y1="756.29" x2="719.76" y2="806.66"/><line class="cls-2" x1="716.18" y1="756.29" x2="716.18" y2="806.66"/><line class="cls-2" x1="712.6" y1="756.29" x2="712.6" y2="806.66"/></g><polygon class="cls-5" points="1111.66 830.81 1092.59 835.81 1092.59 945.24 1111.66 950.24 1111.66 830.81"/><line class="cls-10" x1="760.16" y1="1053.97" x2="1111.66" y2="1011.03"/><polygon class="cls-12" points="747.46 794.14 818.09 794.14 818.09 1048.82 647.99 1048.82 647.99 976.6 747.46 976.6 747.46 794.14"/><polygon class="cls-15" points="717.23 976.6 662.46 976.6 663.46 1255.66 716.23 1255.66 717.23 976.6"/><rect class="cls-18" x="659.33" y="1173.37" width="61.03" height="31.6"/><g><line class="cls-3" x1="708.67" y1="1204.97" x2="708.67" y2="1255.66"/><line class="cls-3" x1="701.22" y1="1204.97" x2="701.22" y2="1255.66"/><line class="cls-3" x1="693.76" y1="1204.97" x2="693.76" y2="1255.66"/><line class="cls-3" x1="686.31" y1="1204.97" x2="686.31" y2="1255.66"/><line class="cls-3" x1="678.86" y1="1204.97" x2="678.86" y2="1255.66"/><line class="cls-3" x1="671.4" y1="1204.97" x2="671.4" y2="1255.66"/></g><polygon class="cls-19" points="747.46 964.55 818.09 964.55 818.09 916.97 803.09 916.97 765.61 849 747.46 849 747.46 964.55"/><line class="cls-5" x1="1092.59" y1="820.97" x2="818.09" y2="820.97"/><line class="cls-5" x1="898.65" y1="1037.05" x2="898.65" y2="820.97"/><line class="cls-5" x1="1052.49" y1="1018.26" x2="1052.49" y2="820.97"/></g></g></svg>