<?xml version="1.0" encoding="UTF-8"?><svg id="Layer_2" xmlns="http://www.w3.org/2000/svg" viewBox="0 0 492.3 1053.5"><defs><style>.cls-1{fill:#edf2ef;stroke:#000;stroke-miterlimit:10;stroke-width:3px;}</style></defs><g id="Layer_1-2"><g><path class="cls-1" d="M128.72,32.58c43.39-39.3,195.03-43.54,234.17,0,111.8,124.37,187.94,552.79,64.67,665.8-67.26,61.66-303.76,67.66-364.97,0C-49.63,574.34,4.73,144.86,128.72,32.58Z"/><path class="cls-1" d="M67.93,219.46C21.57,434.26,10.96,692.84,144.34,967.54c0,0-47.7,23.1-56.99,40.55-4.9,9.21-6.31,27.58,3.1,32.09,32.61,15.63,133.56-2.6,139.5-38.28,6.01-36.03,13.79-269.58,13.79-269.58,0,0,13.93,238.07,22.31,267.32,4.29,14.96,26.06,41.44,40.49,47.28,16.78,6.79,62.73,8.73,72.11-6.75,6.93-11.44-22.8-69.24-22.8-69.24,0,0,155.08-254.67,40.96-752.61"/></g></g></svg>