<?xml version="1.0" encoding="UTF-8"?><svg id="Layer_2" xmlns="http://www.w3.org/2000/svg" viewBox="0 0 679.45 716.85"><defs><style>.cls-1{fill:none;stroke-width:5.03px;}.cls-1,.cls-2{stroke:#000;stroke-miterlimit:10;}.cls-2{fill:#edf2ef;stroke-width:3px;}</style></defs><g id="Layer_1-2"><g><path class="cls-2" d="M594.38,116.55C548.85,65.09,453.61,1.5,345.56,1.5,180.8,1.5,60.21,76.67,16.02,239.03c-47.37,174.02,33.94,341.01,62.03,397.38,24.3,48.74,65.93,68.97,129.67,75.67,90.99,9.57,233.26,.13,324.86-54.3,66.42-39.46,120.95-106.82,141.08-232.24,15.87-98.84-12.67-233.68-79.29-308.99ZM78.05,263.96c0-43.2,35.02-78.22,78.22-78.22s78.22,35.02,78.22,78.22-35.02,78.22-78.22,78.22-78.22-35.02-78.22-78.22Zm109.92,405.92c-28.48,0-51.56-23.09-51.56-51.56s23.09-51.56,51.56-51.56,51.56,23.09,51.56,51.56-23.09,51.56-51.56,51.56Zm301.99-145.49c-34.65,0-62.74-28.09-62.74-62.74s28.09-62.74,62.74-62.74,62.74,28.09,62.74,62.74-28.09,62.74-62.74,62.74Z"/><path class="cls-1" d="M270.58,345.28s-5.57,41.94,45.3,37.77"/></g></g></svg>