<?xml version="1.0" encoding="UTF-8"?><svg id="Layer_2" xmlns="http://www.w3.org/2000/svg" xmlns:xlink="http://www.w3.org/1999/xlink" viewBox="0 0 1657.38 691.03"><defs><style>.cls-1{fill:url(#radial-gradient);}.cls-2{fill:url(#radial-gradient-2);}</style><radialGradient id="radial-gradient" cx="4573.63" cy="720.77" fx="4573.63" fy="720.77" r="83.97" gradientTransform="translate(6143.64) rotate(-180) scale(1 -1)" gradientUnits="userSpaceOnUse"><stop offset=".01" stop-color="#fff"/><stop offset=".15" stop-color="#f6dec0"/><stop offset=".16" stop-color="#f6ddbc"/><stop offset=".25" stop-color="#f6d18c"/><stop offset=".29" stop-color="#f6cd7a"/><stop offset=".35" stop-color="#edc372"/><stop offset=".45" stop-color="#d7a95d"/><stop offset=".51" stop-color="#cb9b51"/><stop offset=".65" stop-color="#a07a40"/><stop offset=".99" stop-color="#352717"/><stop offset="1" stop-color="#312416"/></radialGradient><radialGradient id="radial-gradient-2" cx="5409.06" cy="657.5" fx="5409.06" fy="657.5" r="825.45" gradientTransform="translate(5799.11 2076.72) rotate(-159.3) scale(.97 -.15) skewX(4.13)" gradientUnits="userSpaceOnUse"><stop offset=".22" stop-color="#ac7f5a"/><stop offset=".4" stop-color="#a97c58"/><stop offset=".53" stop-color="#9f7453"/><stop offset=".64" stop-color="#90664b"/><stop offset=".74" stop-color="#7a533f"/><stop offset=".83" stop-color="#5e3a30"/><stop offset=".9" stop-color="#462523"/></radialGradient></defs><g id="Layer_1-2"><g><path class="cls-1" d="M1657.38,677.56S781.23,619.83,0,2.48c0,0,588.04,564.07,1650.96,688.55l6.42-13.47Z"/><path class="cls-2" d="M874.4,250.51l-50.09,234.84c6.82-72.34-19.83-68.12-19.83-68.12l46.88-204.4,23.04,37.67Zm15.68-37.67l-49.64,216.19s26.81-4.93,18.83,72.43l53.99-251.58-23.18-37.03Zm39.91-6.88l-51.76,225.15s27.04-5.91,17.44,78.39l59.38-274.74-25.06-28.8Zm28.31,39.89l-46.22,201.37s26.76-4.69,19.17,70.94l52.64-245.81-25.59-26.5Zm34.82,24.55l-45.39,197.82s26.71-4.5,19.43,69.83l51.64-241.49-25.67-26.16Zm37.13,25.35l-42,183.25s26.54-3.75,20.5,65.26l47.51-223.76-26-24.75Zm36.12,35.67l-38.86,169.75s26.38-3.06,21.48,61.03l43.68-207.34-26.31-23.44Zm36.23,30.65l-35.95,157.24s26.23-2.42,22.39,57.11l40.14-192.13-26.59-22.23Zm37.09,26.48l-32.92,144.23s26.07-1.75,23.34,53.03l36.46-176.3-26.88-20.97Zm38.34,28.22l-30.44,133.61s25.94-1.2,24.12,49.71l33.45-163.38-27.12-19.94Zm38.58,22.66l-28.15,123.77s25.83-.69,24.84,46.62l30.66-151.41-27.34-18.99Zm41.49,25.4l-26.03,114.66s25.72-.22,25.5,43.77l28.08-140.32-27.55-18.1Zm36.38,27.57l-19.48,93.79s25.72-.22,25.5,43.77l21.53-119.45-27.55-18.1Zm39.8,23.18l-12.25,79.67s25.72-.22,25.5,43.77l14.3-105.33-27.55-18.1Zm35.78,19.64l-12.25,68.56s25.72-.22,25.5,43.77l14.3-94.22-27.55-18.1Zm33.68,23.11l-6.13,54.16s25.72-.22,25.5,43.77l8.18-79.82-27.55-18.1Zm35.11,19.33l-3.84,42.51s19.55-1.66,16.92,41.77l6.83-67.95-19.92-16.33Zm24.5,14.26l-1.92,32.93s19.55-1.66,16.92,41.77l4.91-58.37-19.92-16.33Zm28.79,8.67l-4.98,27.9s9.36-4.03,2.75,38.47l9.53-52.98-7.3-13.39Zm13.94,6.69l-4.18,23.44s9.36-4.03,2.75,38.47l9.53-52.98-8.1-8.93Zm13.74,8.07l-4.18,19.4s9.36-4.03,2.75,38.47l9.53-48.94-8.1-8.93Zm13.02,16.09l-2.87,13.77s8.96-2.32,5.18,28.01l6.24-34.79-8.55-6.98Zm15.35,13.69l-1.75,8.97s8.62-.85,7.26,19.11l3.43-22.76-8.94-5.33ZM812.13,214.69l-42.31,185.19s26.7-4.43,19.54,69.38l46.23-218.82-23.46-35.74Zm-36.82-8.84l-40.74,181.87s26.65-4.22,19.83,68.12l45.27-218.52-24.36-31.46Zm-34.84-13.27l-40.86,177.25s26.65-4.22,19.83,68.12l44.45-209.33-23.43-36.04Zm-34.4-13.76l-41.42,174.91s26.65-4.22,19.83,68.12l44.53-204.59-22.94-38.44Zm-37.37-10.83l-39.01,171.43s26.65-4.22,19.83,68.12l43.71-208.57-24.54-30.97Zm-44.04-7.8l-37.9,164.74s26.65-4.22,19.83,68.12l43.46-205.38-25.39-27.47Zm-36.34-11.57l-36.51,154.76s26.65-4.22,19.83,68.12l39.47-183.83-22.79-39.04Zm-41.02-7.39l-38.43,143.06s26.65-4.22,19.83,68.12l43.46-178.58-24.86-32.59Zm-40.7-15.75l-32.69,139.31s26.65-4.22,19.83,68.12l35.49-168.22-22.63-39.2Zm-39.79-12.66l-27.86,138.55s26.65-4.22,19.83,68.12l30.34-165.95-22.32-40.71Zm-31.58-13.67l-31.23,127.18s26.65-4.22,19.83,68.12l34.29-156.29-22.89-39.01Zm-38.53-14.64l-27.66,122.56s26.65-4.22,19.83,68.12l30.56-151.09-22.74-39.58Zm-35.12-14.15l-27.49,112.03s26.65-4.22,19.83,68.12l30.17-139.41-22.5-40.74Zm-36.93-15.35l-28.13,112.01s26.65-4.22,19.83,68.12l31.7-142.9-23.4-37.23Zm-41.09-12.12l-22,99.09s26.65-4.22,19.83,68.12l25.31-130.41-23.14-36.8Zm-39.39-8.28l-17.56,85.31s26.65-4.22,19.83,68.12l20.67-116.58-22.93-36.84Zm-41.46-4.27l-13.67,64.54s26.65-4.22,19.83,68.12l17.73-100.02-23.9-32.63Zm-46.01-16.72l-11.91,51.45s26.65-4.22,19.83,68.12l15.13-81.87-23.05-37.7ZM126.42,0l-10.94,37.55s18.5-6.12,8.49,65.48l17.25-71.69L126.42,0Z"/></g></g></svg>