<?xml version="1.0" encoding="UTF-8"?><svg id="Layer_2" xmlns="http://www.w3.org/2000/svg" xmlns:xlink="http://www.w3.org/1999/xlink" viewBox="0 0 1390.27 2232.13"><defs><style>.cls-1{fill:#f7f7f7;}.cls-1,.cls-2,.cls-3,.cls-4,.cls-5,.cls-6,.cls-7{stroke:#000;stroke-miterlimit:10;}.cls-1,.cls-4,.cls-5{stroke-width:2px;}.cls-2,.cls-3,.cls-7{stroke-width:3px;}.cls-2,.cls-4,.cls-6{fill:none;}.cls-3{fill:#91785d;}.cls-8{fill:#2b2b2b;}.cls-5{fill:#7a9bd3;}.cls-6{stroke-width:1.85px;}.cls-7{fill:url(#radial-gradient);}</style><radialGradient id="radial-gradient" cx="818.47" cy="1608.39" fx="818.47" fy="1608.39" r="2098.32" gradientTransform="translate(-131.02 988.46) rotate(-10.66) scale(1 .49)" gradientUnits="userSpaceOnUse"><stop offset=".32" stop-color="#009245"/><stop offset=".36" stop-color="#119b48"/><stop offset=".41" stop-color="#27a74c"/><stop offset=".48" stop-color="#38b050"/><stop offset=".56" stop-color="#44b652"/><stop offset=".68" stop-color="#4bba53"/><stop offset="1" stop-color="#4dbb54"/></radialGradient></defs><g id="Layer_1-2"><g><path class="cls-5" d="M1256.51,1511.39c38.03-4.24,75.5-12.88,84.14-18.48,0,0,20.43-9.07,24.96-14.72,1.64-2.04-9.84-11.02-9.28-13.38,.71-2.98,13.68-7.12,13.96-9.22,.36-2.79-15.27-5.11-15.83-9.31-.43-3.2,13.8-12.65,11.19-14.99-3.53-3.17-20.27-10.85-28.69-13.1-25.29-6.76-56.36-12.21-84.49-19.28"/><g><g><path class="cls-3" d="M1061.31,68l24.91-64.4c605.65,1143.06,114.83,1819.29,114.83,1819.29l-17.98-8.72,7.9-16.98C1636.86,1005.79,1061.31,68,1061.31,68Z"/><g><path class="cls-7" d="M1.44,1604.92c128.8,423.95,425.25,580.51,687.8,616.7,248.04,34.18,620.45-19.69,565.07-321.58-12.27-66.86-71.25-85.86-71.25-85.86,0,0,54-100.92,15.54-169.38-66.1-117.66-262.09-98.85-391.3-38.52-92.86,43.36-177.54,114.2-381.02,139.53-66.27,8.25-223.6-7.57-317.52-37.86C26.8,1681.49,1.44,1604.92,1.44,1604.92Z"/><path class="cls-2" d="M776.92,1967.98c-169.27,15.65-425.78,13.93-642.22-170.32"/><path class="cls-2" d="M1183.06,1814.17s-68.16,60.3-193.68,106.31"/></g></g><g><g><g><path class="cls-8" d="M1085.7,1757.54s1.34,9.16,17.53,27.82c11.17,12.88,14.94,.05,19.58-.67,9.33-1.44,9.81,2.9,19.07,.67,11-2.65,3.89-5.51,11.17-8.38,6.53-2.58,13.73,.13,18.98-1.91,11.58-4.51-35.24-48.9-35.24-48.9l-51.08,31.37Z"/><path class="cls-8" d="M845.57,1764.77s-48.55,27.45-31.28,27.22,12.06,11.3,27.37,10.61c15.32-.69,19.23-6.46,39.75-1.85s13.03-25.37,13.03-25.37l-48.88-10.61Z"/></g><path class="cls-5" d="M1252.47,1398.9c-34.47-8.67-64.54-19.78-74.19-38.73-53.52-105.08-99.71-123.2-99.71-123.2,12.13-66.36,.91-177.29-40.68-195.48-9.18-4.01-27.38,76.47-28.77,108.77-.79,18.33,24.8,69.8,22.58,72.28-2.02,2.26-50.26-11.84-90.4-7.23-66.92,7.69-92.08,25.75-95.19,23.68-4.61-3.08-83.23-175.66-147.01-163.2-10.27,2.01,21.42,100.34,26.76,129.37,3.68,19.97,87.88,56,66.43,74.74-39.62,34.6-33.94,41.07-44.6,96.27-2.63,13.6-83.69,81.11-39.37,218.98,6.92,21.53,13.97,27.52,20.15,29.37,3.02,.9,.2-6.52,.46-5.84,1.22,3.17,3.57,7.39,4.67,8.3,3.75,3.11,1.65-10.71,1.71-10.15,.48,4.15,1.73,11.99,3.46,11.5,7.62-2.2,9.53-40.87,9.53-40.87,0,0-1.95,38.82-9.53,40.87,0,0-1.94,1.27-3.46-11.5,0,0,2,13.2-1.71,10.15,0,0,1.28,111.92,92.21,147.17,73.34,28.43,208.2,7.89,273.73-5.54,48.29-9.89,82.02-56.27,101.68-78.12,21.95-24.39,23.81-70.22,23.81-99.19,0-55.01-11.78-75.73-7.71-77.38s25.78-1.03,39.18-2.52"/><g><path class="cls-1" d="M1189.18,1704.39s30.35-226.38-126.08-305.92c-54.44-27.68-123.73-19.48-158.7,0-72.89,40.6-111.06,115.21-119.95,173.46-5.97,39.12-19.03,180.76,50.17,204.76,5.28,1.83,22.3,7.27,52.25,9.87,13.08,1.14,28.66,1.36,46.75,1.14,81.88-1.03,166.83-19.66,171.32-20.84,20.33-5.31,48.28-20.38,84.25-62.46Z"/><g><path class="cls-5" d="M931.62,1442.8c-3.14,.27,25.35-45.62,42.72-45.62,13.24,0,47.56,35.08,44.47,36.34-9,3.69-24.8-12.25-43.6-9.59-15.92,2.26-33.96,18.04-43.6,18.86Z"/><path class="cls-5" d="M1041.76,1474.37c-2.8,.12,24.14-39.59,39.56-38.97,11.75,.47,40.96,32.84,38.18,33.86-8.12,2.95-21.58-11.76-38.36-10.07-14.21,1.43-30.79,14.8-39.38,15.18Z"/><path class="cls-5" d="M838.51,1497.33c-2.87,.34,21.78-42.48,37.66-43.01,12.1-.4,44.55,30.61,41.76,31.86-8.11,3.65-23.05-10.44-40.14-7.43-14.48,2.55-30.49,17.53-39.28,18.57Z"/></g></g></g><g><g><g><path class="cls-1" d="M888.79,1271.05c9.71,14.2-1.67,35.48-20.59,44.73-18.92,9.25-43.11,5.27-47.94-11.23s1.67-35.48,20.59-44.73c18.92-9.25,37.09-4.63,47.94,11.23Z"/><ellipse cx="849.27" cy="1269.88" rx="12.99" ry="9.92" transform="translate(-438.75 448.37) rotate(-23.7)"/></g><g><path class="cls-1" d="M1079.63,1251.51c8.86,14.2,9.69,38.17-12.35,42.59-19.22,3.86-36.25,2.5-43.78-11.23-8.34-15.2,.83-36.91,18.8-44.73,9.64-4.2,27.42-2.5,37.32,13.36Z"/><ellipse cx="1042.65" cy="1251.51" rx="10.04" ry="8.52" transform="translate(-511.39 763.3) rotate(-32.76)"/></g><path d="M949.38,1290.13c7.08-2.7,10.07-2.7,18.27-2.66,4.9,.03,.53,4.94-3.71,8.28-3.51,2.76-5.31,3.42-9.56,1.53-3.79-1.69-10.14-5.19-5-7.15Z"/></g><g><path class="cls-6" d="M767.94,1326.93s-26.49-13.29-47.29,3.51"/><path class="cls-6" d="M767.26,1339.08s-28.12-7.36-45.93,13.64"/></g><g><path class="cls-4" d="M1117.02,1268.05s12.97-10.02,26.33-7.56"/><path class="cls-4" d="M1126.28,1278.9s10.51-4.95,21.02-4.87"/></g></g></g></g></g></g></svg>