<?xml version="1.0" encoding="UTF-8"?><svg id="Layer_2" xmlns="http://www.w3.org/2000/svg" viewBox="0 0 1117.72 1607.58"><defs><style>.cls-1{fill:#339750;}.cls-2{fill:#eaeaea;}.cls-3{fill:#cecece;}</style></defs><g id="Layer_1-2"><g><path class="cls-1" d="M553.47,429.47s153.9-118.91,225.69-125.12c93.91-8.12,317.4,121.13,317.4,121.13,0,0-99.43,174.41-322.83,206.9-48.91,7.11-49.12,281.52-46.9,324.49,4.19,81-9.52,311.15-49.64,395.01-109.55,228.97-133.97,216.58-148.29,216.66-30.41,.17-26.39-138.45-60.37-216.45-34.99-80.31-114.1-275.24-132.98-405.81-18.11-125.24-14.15-316.87-14.15-316.87,0,0-128.92-32.17-165.76-48-42.4-18.21-123.62-100.07-123.62-100.07,0,0,101.77-39.32,162.17-76.7,58.24-36.04,132.2-78.19,209.2-83.62,63.08-4.45,150.07,108.43,150.07,108.43Z"/><path class="cls-2" d="M409.53,162.71c-49.44,10.28-100.81,26.59-150.04,47.85-45.1,19.48-122.01,75.27-159.43,107.11C64.8,347.66,.47,423.32,0,469.61v3.27c-.15,14.26,108,104.75,154.29,121.67,39.91,14.59,145.29,50.67,145.29,50.67,0,0-2.25,171.22,17.05,306.07,20.12,140.59,95.52,314.35,132.82,400.83,36.22,83.98,35.32,254.24,68.42,254.73,59.59,.88,143.51-152.97,179.78-253.86,29.86-83.07,53.31-307.37,49.64-394.63-3.7-87.92,5.93-301.33,39.47-309.3,250-59.43,329.35-212.48,330.82-229.7,3.04-35.6-39.54-86.15-84.56-126.4-55.17-49.32-145.1-92.04-216.45-111.68-49.14-13.53-111.83-29.4-162.78-30.41-16.19-.32-53.96-.7-69.61,.89-20.37,2.07-63.64,11.5-82.47,19.53-20.01,8.53-36.37,14.79-67.34,50.98-30.11,35.18-47.91,82.53-47.91,82.53l-9.78,1.47c-78.24,10.33-150.53,56.36-208.96,92.88-34.4,21.5-76.09,40.5-111.02,54.07l-7.6,2.42s28.17-62.39,86.09-108.89c34.54-27.73,104.39-84.03,144.89-101.96,56.57-25.04,93.58-37.68,166.02-48.86,16.99-2.62,48.59-5.93,65.76-6.67,14.52-.63,35.34-2.07,47-1.07,22.41,1.91,30.89,2.42,49.69,7.86,16.75,4.85,33.78,8.62,49.19,16.77,11.26,5.96,28.84,12.6,46.58,35.55,25.4,32.87,25.51,53.8,25.51,53.8l-9.34,3.85c-50.31,19.81-103.89,53.39-136.99,74.5,0,0,15.67-90.11,14.53-120.97-2.01-54.7-28.51-90.24-25.49-144.89,4.02-72.75,17.74-57.54,18.4-48.46,.16,2.26,6.53,23.44-14.81,84.89l25.85-.24c18.83-47.85,24.04-84.63,16.86-117.36-10.8-49.22-74.74-56.74-81.17,65.07-2.91,55.13,19.99,99.85,19.81,155.06-.1,30.59-17.88,124.45-17.88,124.45-18.52-20.04-52.85-50.39-89.09-65.54l-14.37-6.31s7.45-27.43,33.76-56.05c11.59-12.61,27.39-29.4,42.11-38.16,12.46-7.42,37.61-17.56,51.58-21.47,16.93-4.73,42.04-7.78,59.63-7.75,49.56,.07,114.1,13.28,162.11,25.57,64.54,16.52,167.62,64.57,217.86,108.32s72.59,79.68,72.59,79.68c-54.6-29.27-152.81-83.08-233.34-99.08-13.95-2.77-42.11-7.18-56.29-8.25l-12.82,.95s-2.98-21.02-21.47-50.53c-16.64-26.56-32.64-35.84-43.38-43.38-20.83-14.63-51.66-28.41-76.02-35.78-12.93-3.91-25.56-5.7-48.3-8.5-19.14-2.35-63.01-.66-82.29,0-18.82,.64-73.91,7.12-92.35,10.96M220.58,498.15s-54.73-.87-72.4-4.98c-15.54-3.62-48.63-19.37-48.63-19.37,0,0,16.94,22.86,39.16,27.65,0,0-25.3,5.54-37.07,16.72-2.28,2.17,51.3-8.76,68.27-8.94,20.6-.22,53.37,2.24,53.37,2.24-7.38,2.61-12.31,14.87-23.7,24.89-10.91,9.6-26.06,14.88-24.15,14.91,23.11,.3,52.32-35.48,62.61-39.09,3.88-1.36,99.73-4.22,99.73-4.22-9.39,5.93-16.99,31.08-37.68,47.96-6.96,5.68-32.79,18.06-29.4,18,41.81-.78,68.42-51.88,90.93-70.36,8.26-6.79,77.62-25.07,77.62-25.07-11.35,19.08-25.35,42.32-32,54.88-6.18,11.68-43.53,47.7-43.53,47.7,56.94-30.11,76.62-79.01,101.56-112.7,7.36-9.95,62.02-25.94,62.02-25.94,1.56,17.16-17.58,61.24-21.66,69.18-5.51,10.69-164.2,144.52-173.81,200.65-.32,1.87,45.78-60.06,85.27-94.21,27.23-23.55,65.21-61.9,80.23-76.96,0,0-6.57,48.92-9.87,69.8-3.93,24.86-4.53,40.26-13.71,56.94-8.68,15.78-133.49,133.27-135.5,169.04-.13,2.26,43.5-53.79,74.24-83.18,14.3-13.67,45.88-50.63,58.65-60.84,0,0-3.6,76.02-5.52,131-.18,5.17-107.46,95.53-111.04,146.51-.25,3.52,33.12-49.82,61.27-76.47,11.69-11.07,31.01-30.43,48.68-43.95,0,0,9.48,98.89,2.08,121.09-6.71,20.12-80.05,77.81-78.71,125.66,.1,3.56,24.29-41.44,48.3-66.19,17.21-17.74,35.82-31.16,36.67-35.78,0,0,32.34,101.32,30.54,116.8-2.21,19-67.5,71.17-63.03,109.63,.32,2.78,19.62-31.15,38.76-53.07,15.75-18.04,25.33-26.46,30.41-38.76,0,0,28.64,111.14,28.06,120.15-1,15.58-56.23,55.6-54.22,82.66,.14,1.91,13.33-22.97,31.08-37.64,18.81-15.54,24.19-22.38,26.74-27.47,0,0,6.48,28.49,7.37,34.03,3.19,19.89,3.05,78.08,.57,86.4-2.7,9.08-33.89,27.86-37.81,50.15-.33,1.89,8.2-9.51,16.77-19.16,7.16-8.05,14.53-7.6,19.68-11.63l-18.56,160.77,29.7-148.62c5.9,6.93,11.62,13.9,19.79,21.32,10.99,9.97,21.46,30.01,22.06,27.13,3.58-16.99-35.42-55.9-38.65-69.92-2.13-9.25,9.52-77.33,7.13-100.01-.17-1.65,12.59,5.92,33.01,13.12,22.05,7.77,46.77,30.35,46.51,28.02-2.09-18.78-74.33-50.34-82.76-62.63-12.65-18.46-13.89-65.38-23.31-102.85-.66-2.62,13.55,11.2,43.76,28.64,33.64,19.41,73.25,65.75,73.34,62.61,.89-29.96-112.7-102.86-126.03-126.13-9.01-15.74-24.66-94.58-24.66-94.58,1.9,3.32,19.06,20.47,58.86,42.13,47.11,25.64,101.05,82.97,100.77,81.69-12.22-55.45-153.96-132.24-163.92-154.07-12.41-27.21-10.2-118.43-10.2-118.43,8.21,10.29,63.57,54.15,104.89,88.72,49.54,41.44,79.11,89.55,79.3,87.6,5.66-57.24-175.67-180.8-182.93-200.44-6.63-17.92,4.93-98.41,4.93-98.41,13.18,14.35,61.33,39.92,101.18,72.31,62.16,50.53,85.36,101.75,85.22,99.11-3.58-69.48-174.99-176.24-182.46-203.63-10.73-39.35,11.93-140.12,11.93-140.12,9.54,21.17,72.95,84.72,87.05,98.5,43.53,42.52,89.35,126.99,89.15,124.81-7.16-77.81-143-191.03-166.06-253.12-7.75-20.87,21.53-84.66,21.53-84.66,10.97,22.06,48.29,50.99,87.29,110.6,40.34,61.66,68.73,108,68.42,105.99-7.83-51.75-147.5-233.44-148.4-242.98-.52-5.49,3.28-17.15,6.64-18.63,11.12-4.92,48.92-2.68,56.99,5.68,21.94,22.71,52.35,139.21,112.94,149.05,2.79,.45-43.38-23.05-57.24-74.24-2.64-9.75-24.15-67.37-35.33-74.24,0,0,86.96,5.81,89.96,9.04,10.96,11.83,34.96,115.73,86.99,101.87,1.12-.3-31.07-6.18-45.61-37.57-9.08-19.6-21.45-60.73-28.32-64.7,0,0,97.84-.67,102.93,.89,5.36,1.65,35.11,70.81,76.84,68.87,1.92-.09-22.28-10.93-37.57-28.62-12.41-14.36-20.39-36.48-26.53-40.75,0,0,8.65-.1,22.96-.99,13.23-.82,26.39-2.43,31.01-1.39,3.68,.83,31.9,18.9,58.06,11.89,2.38-.64-17.22-2.01-24.97-4.84-6.58-2.41-14.57-6.75-21.03-9.3,0,0,29.57-4.08,62.12-8,40.93-4.93,80.56-10.29,85.17-13.4,3.4-2.3-38.92,.81-86.98,5.12-43.27,3.88-85.04,8-85.04,8,12.07-5.52,23.53-8.62,49.83-18.82,14.61-5.66,57.34-15.25,55.27-15.32-48.56-1.68-120.32,33.62-125.25,33.88-25.23,1.29-73.75-.34-73.75-.34,11.83-3.71,33.85-28.87,48.15-43.53,23.25-23.85,57.89-36.19,56.35-36.37-40.55-4.92-97.79,69.47-118.96,78.78-6.21,2.73-68.57-4.55-68.57-4.55,12.82-8.05,37.23-35.37,50.68-50.39,18.76-20.94,63.64-41.98,62.39-42.34-34.51-9.84-105.91,71.85-130.92,91.28-4.19,3.26-70.99-10.34-70.99-10.34,29.73-13.45,64.26-48.9,77.81-61.27,46.06-42.04,71.24-37.54,68.42-39.35-30.41-19.58-113.14,72.45-170.52,96.04-9.93,4.08-35.2-6.6-35.2-6.6,45.63-31.02,154.79-103.61,202.58-108.51,93.77-9.61,319.9,119.24,319.9,119.24,0,0-103.45,173.22-322.83,206.9-48.85,7.5-51.62,281.42-49.4,324.38,4.19,81-14.31,309.02-49.64,395.01-37.88,92.21-116.16,223.13-145.79,216.77-27.93-6-26.4-138.45-60.37-216.45-34.99-80.31-114.1-275.24-132.98-405.81-18.11-125.24-14.15-316.87-14.15-316.87,0,0-122.31-37.67-160.99-51.09-43.6-15.12-126.88-98.09-126.88-98.09,0,0,97.77-34.32,158.17-71.7,58.24-36.04,133.2-80.19,210.2-85.62,47.31-3.34,98.97,59.95,126.11,90.93,0,0-43.8,13.1-136.84-42.04-56.52-33.49-87.5-10.64-87.5-10.64,0,0,41.03-3.99,93.76,30.77,8.69,5.73,75.8,37.57,95.48,38.26,0,0-36.39,19.26-56.57,21.66-74.09,8.8-99.58-63.8-177.24-51.73,0,0,32.86,.6,75.73,32.8,14.93,11.21,55.75,35.03,76.47,35.48,0,0-53.66,22.36-70.38,19.39-34.71-6.16-97.62-59.34-130.27-51.29,0,0,34.88,9.54,58.73,29.81,6.92,5.88,37.23,25.66,47.25,27.43,0,0-62.21,9.45-79.61,5.45-20.01-4.61-37.04-41.07-72.82-33.7,0,0,21.18,2.15,38.39,19.75,3.92,4.01,11.13,11.07,17.73,13.82Z"/><path class="cls-3" d="M745.7,1037.9s22.26,204.59-68.08,294.16c-174.63,173.14-170.71,267.17-170.71,267.17,0,0,6.08,13.92,23.05,5.82s35.86-105.95,170.02-247.63c103.75-109.57,70.32-338.6,47.29-399.07l-1.58,79.55Z"/><path class="cls-3" d="M554.53,217.05s-23.37,42.17-70.55,64.98c-14.63,7.07-47.77,13.17-63.95,14.63s-50.31,0-67.08,0c-26.61,0-80.94-4.47-106.43,0-27.79,4.88-79.7,30.4-101.52,48.3-20.32,16.67-49.93,50.95-64.4,72.89-8.09,12.27-23.83,51.45-27.28,65.74-4.09,16.95-4.13,52.82,0,69.76,5.01,20.55,21.06,61.96,39.54,88.2,29.3,41.58,78.18,65.6,106.84,76.97s101.03,29.32,101.03,29.32l1.33,32.65s-88.22-18.02-138.73-42.89c-39.35-19.38-73.34-38.6-102.56-83.48-13.31-20.45-32.8-56.65-41.44-97.19-4.56-21.38-5.26-66.21,0-87.43,6.86-27.65,22.52-56.14,31.9-69.99,16.96-25.03,41.14-50.68,77.81-81.09,22.78-18.89,81.1-49.62,110.29-54.56,41.39-7.01,83.34,3.64,112.72,3.87,15.35,.12,46.18,1.3,61.42-.6s47.3-7.81,61.42-14.91c39.28-19.75,74.82-61.36,74.82-61.36l4.82,26.18Z"/></g></g></svg>