<?xml version="1.0" encoding="UTF-8"?><svg id="Layer_2" xmlns="http://www.w3.org/2000/svg" xmlns:xlink="http://www.w3.org/1999/xlink" viewBox="0 0 1657.38 691.03"><defs><style>.cls-1{fill:url(#radial-gradient);}.cls-2{fill:url(#radial-gradient-2);}</style><radialGradient id="radial-gradient" cx="87.37" cy="720.77" fx="87.37" fy="720.77" r="83.97" gradientUnits="userSpaceOnUse"><stop offset=".01" stop-color="#fff"/><stop offset=".15" stop-color="#f6dec0"/><stop offset=".16" stop-color="#f6ddbc"/><stop offset=".25" stop-color="#f6d18c"/><stop offset=".29" stop-color="#f6cd7a"/><stop offset=".35" stop-color="#edc372"/><stop offset=".45" stop-color="#d7a95d"/><stop offset=".51" stop-color="#cb9b51"/><stop offset=".65" stop-color="#a07a40"/><stop offset=".99" stop-color="#352717"/><stop offset="1" stop-color="#312416"/></radialGradient><radialGradient id="radial-gradient-2" cx="787.63" cy="77" fx="787.63" fy="77" r="825.45" gradientTransform="translate(116.73 562.13) rotate(-20.7) scale(.97 .15) skewX(4.13)" gradientUnits="userSpaceOnUse"><stop offset=".22" stop-color="#ac7f5a"/><stop offset=".4" stop-color="#a97c58"/><stop offset=".53" stop-color="#9f7453"/><stop offset=".64" stop-color="#90664b"/><stop offset=".74" stop-color="#7a533f"/><stop offset=".83" stop-color="#5e3a30"/><stop offset=".9" stop-color="#462523"/></radialGradient></defs><g id="Layer_1-2"><g><path class="cls-1" d="M0,677.56S876.15,619.83,1657.38,2.48c0,0-588.04,564.07-1650.96,688.55l-6.42-13.47Z"/><path class="cls-2" d="M806.01,212.84l46.88,204.4s-26.65-4.22-19.83,68.12l-50.09-234.84,23.04-37.67Zm-61.89,37.03l53.99,251.58c-7.99-77.36,18.83-72.43,18.83-72.43l-49.64-216.19-23.18,37.03Zm-41.8-15.1l59.38,274.74c-9.6-84.3,17.44-78.39,17.44-78.39l-51.76-225.15-25.06,28.8Zm-28.85,37.59l52.64,245.81c-7.58-75.63,19.17-70.94,19.17-70.94l-46.22-201.37-25.59,26.5Zm-34.9,24.21l51.64,241.49c-7.28-74.33,19.43-69.83,19.43-69.83l-45.39-197.82-25.67,26.16Zm-37.46,23.94l47.51,223.76c-6.04-69.02,20.5-65.26,20.5-65.26l-42-183.25-26,24.75Zm-36.42,34.36l43.68,207.34c-4.9-64.09,21.48-61.03,21.48-61.03l-38.86-169.75-26.31,23.44Zm-36.51,29.44l40.14,192.13c-3.83-59.53,22.39-57.11,22.39-57.11l-35.95-157.24-26.59,22.23Zm-37.38,25.22l36.46,176.3c-2.73-54.78,23.34-53.03,23.34-53.03l-32.92-144.23-26.88,20.97Zm-38.58,27.19l33.45,163.38c-1.83-50.91,24.12-49.71,24.12-49.71l-30.44-133.61-27.12,19.94Zm-38.8,21.71l30.66,151.41c-.99-47.32,24.84-46.62,24.84-46.62l-28.15-123.77-27.34,18.99Zm-41.69,24.51l28.08,140.32c-.22-43.99,25.5-43.77,25.5-43.77l-26.03-114.66-27.55,18.1Zm-36.38,27.57l21.53,119.45c-.22-43.99,25.5-43.77,25.5-43.77l-19.48-93.79-27.55,18.1Zm-39.8,23.18l14.3,105.33c-.22-43.99,25.5-43.77,25.5-43.77l-12.25-79.67-27.55,18.1Zm-35.78,19.64l14.3,94.22c-.22-43.99,25.5-43.77,25.5-43.77l-12.25-68.56-27.55,18.1Zm-33.68,23.11l8.18,79.82c-.22-43.99,25.5-43.77,25.5-43.77l-6.13-54.16-27.55,18.1Zm-27.48,17.55l6.83,67.95c-2.63-43.43,16.92-41.77,16.92-41.77l-3.84-42.51-19.92,16.33Zm-24.5,14.26l4.91,58.37c-2.63-43.43,16.92-41.77,16.92-41.77l-1.92-32.93-19.92,16.33Zm-16.17,5.73l9.53,52.98c-6.61-42.5,2.75-38.47,2.75-38.47l-4.98-27.9-7.3,13.39Zm-14.74,2.24l9.53,52.98c-6.61-42.5,2.75-38.47,2.75-38.47l-4.18-23.44-8.1,8.93Zm-13.74,8.07l9.53,48.94c-6.61-42.5,2.75-38.47,2.75-38.47l-4.18-19.4-8.1,8.93Zm-13.47,14.15l6.24,34.79c-3.77-30.32,5.18-28.01,5.18-28.01l-2.87-13.77-8.55,6.98Zm-15.73,12.03l3.43,22.76c-1.36-19.96,7.26-19.11,7.26-19.11l-1.75-8.97-8.94,5.33ZM821.8,250.43l46.23,218.82c-7.16-73.81,19.54-69.38,19.54-69.38l-42.31-185.19-23.46,35.74Zm35.92-13.11l45.27,218.52c-6.82-72.34,19.83-68.12,19.83-68.12l-40.74-181.87-24.36,31.46Zm35.78-8.7l44.45,209.33c-6.82-72.34,19.83-68.12,19.83-68.12l-40.86-177.25-23.43,36.04Zm34.88-11.36l44.53,204.59c-6.82-72.34,19.83-68.12,19.83-68.12l-41.42-174.91-22.94,38.44Zm35.78-18.3l43.71,208.57c-6.82-72.34,19.83-68.12,19.83-68.12l-39.01-171.43-24.54,30.97Zm43.19-11.3l43.46,205.38c-6.82-72.34,19.83-68.12,19.83-68.12l-37.9-164.74-25.39,27.47Zm38.95,0l39.47,183.83c-6.82-72.34,19.83-68.12,19.83-68.12l-36.51-154.76-22.79,39.04Zm38.95-13.85l43.46,178.58c-6.82-72.34,19.83-68.12,19.83-68.12l-38.43-143.06-24.86,32.59Zm42.93-9.14l35.49,168.22c-6.82-72.34,19.83-68.12,19.83-68.12l-32.69-139.31-22.63,39.2Zm40.1-11.14l30.34,165.95c-6.82-72.34,19.83-68.12,19.83-68.12l-27.86-138.55-22.32,40.71Zm31.01-15.38l34.29,156.29c-6.82-72.34,19.83-68.12,19.83-68.12l-31.23-127.18-22.89,39.01Zm38.69-14.06l30.56,151.09c-6.82-72.34,19.83-68.12,19.83-68.12l-27.66-122.56-22.74,39.58Zm35.36-12.99l30.17,139.41c-6.82-72.34,19.83-68.12,19.83-68.12l-27.49-112.03-22.5,40.74Zm36.03-18.86l31.7,142.9c-6.82-72.34,19.83-68.12,19.83-68.12l-28.13-112.01-23.4,37.23Zm41.35-12.55l25.31,130.41c-6.82-72.34,19.83-68.12,19.83-68.12l-22-99.09-23.14,36.8Zm39.6-8.24l20.67,116.58c-6.82-72.34,19.83-68.12,19.83-68.12l-17.56-85.31-22.93,36.84Zm40.5-8.48l17.73,100.02c-6.82-72.34,19.83-68.12,19.83-68.12l-13.67-64.54-23.9,32.63Zm46.85-11.66l15.13,81.87c-6.82-72.34,19.83-68.12,19.83-68.12l-11.91-51.45-23.05,37.7Zm38.5-19.98l17.25,71.69c-10-71.6,8.49-65.48,8.49-65.48l-10.94-37.55-14.8,31.33Z"/></g></g></svg>